# xmcd CD database file
#
# Track frame offsets:
#       150
#       11533
#       29810
#       49948
#       59299
#       76484
#       86654
#       99979
#       113585
#       129330
#       138873
#       147736
#       169472
#       188449
#       200953
#       211068
#       225570
#       241369
#       255795
#       267298
#       279979
#       293258
#
# Disc length: 4098 seconds
#
# Revision: 1
# Processed by: cddbd v1.5.2PL0 Copyright (c) Steve Scherf et al.
# Submitted via: jack 3.1.1
#
DISCID=33100016
DTITLE=Fleetwood Mac - Transmissions 1967-1868 CD2
DYEAR=2019
DGENRE=Blues
TTITLE0=That Ain't It
TTITLE1=Mean Mistreating Mama
TTITLE2=Psychedelic Send-Up Number
TTITLE3=Sheila
TTITLE4=Need Your Love So Bad
TTITLE5=Stop Messin' Round
TTITLE6=Evenin' Boogie
TTITLE7=A Mind Of My Own
TTITLE8=I Have To Laugh
TTITLE9=You're The One
TTITLE10=Preachin' Blues
TTITLE11=You Need Love
TTITLE12=Talk With You
TTITLE13=Bo Diddley
TTITLE14=Wine Whiskey And Women
TTITLE15=Crutch And Cane
TTITLE16=If You Be My Baby
TTITLE17=Crazy For My Baby
TTITLE18=Like Crying Like Dying
TTITLE19=Albatross
TTITLE20=Hang On To A Dream
TTITLE21=Baby Don't You Want To Go (Sweey Home Chicago)
EXTD=
EXTT0=
EXTT1=
EXTT2=
EXTT3=
EXTT4=
EXTT5=
EXTT6=
EXTT7=
EXTT8=
EXTT9=
EXTT10=
EXTT11=
EXTT12=
EXTT13=
EXTT14=
EXTT15=
EXTT16=
EXTT17=
EXTT18=
EXTT19=
EXTT20=
EXTT21=
PLAYORDER=
